<?xml version="1.0" encoding="UTF-8"?>
<svg width="1024" height="1024" viewBox="0 0 1024 1024" xmlns="http://www.w3.org/2000/svg">
  <rect width="1024" height="1024" rx="265" ry="265" fill="#E8DDC8"/>
  <g transform="translate(212 220) scale(3.871)">
    <path d="M127.981 45.7958H148.241C151.618 45.7958 154.15 51.2493 154.15 55.0814L154.15 89.0522C154.15 112.873 154.15 137.25 154.15 142.03C154.15 148.783 148.241 150.456 146.552 150.471C116.444 150.753 54.8767 150.471 46.0975 150.471C40.1884 150.471 35.9676 145.406 35.9676 142.03L35.9676 70.2762C35.9676 48.0699 5.57785 49.1723 0.512863 56.7697C-2.86377 32.2891 18.2402 23.8474 25.8376 23.0032C27.7137 22.7948 35.1234 1.89933 65.5132 0.210915C80.4848 -0.620888 96.4657 7.24558 102.656 12.0291C117.007 23.8474 120.384 36.5098 127.981 45.7958Z" fill="#1A1A1A"/>
    <path d="M99.5349 55.082H154.15V142.03C154.15 144.844 152.631 150.472 146.553 150.472H46.0976V91.3809C46.0976 85.1098 52.8509 81.251 56.2275 81.251H76.4873C80.7081 81.251 88.3056 77.0302 88.3056 68.5886C88.3056 60.147 95.0589 55.082 99.5349 55.082Z" fill="#FAF6EC"/>
    <circle cx="8.4416" cy="8.4416" r="8.4416" transform="matrix(-1 0 0 1 69.7339 22.1606)" fill="#FAF6EC"/>
  </g>
</svg>
